<svg width="16" height="12" viewBox="0 0 16 12" fill="none" xmlns="http://www.w3.org/2000/svg">
<path d="M14 0H2C0.897083 0 0 0.807375 0 1.8V10.2C0 11.1926 0.897083 12 2 12H14C15.1029 12 16 11.1926 16 10.2V1.8C16 0.807375 15.1029 0 14 0ZM14.6667 10.2C14.6667 10.5315 14.3683 10.8 14 10.8H2C1.63167 10.8 1.33333 10.5315 1.33333 10.2V4.56C1.86667 4.92 2.66667 5.52 5.33333 7.2C5.86667 7.56 6.93333 8.4 8 8.4C9.06667 8.4 10.1333 7.56 10.6667 7.2C13.3333 5.52 14.1333 4.92 14.6667 4.56V10.2ZM14.6667 3.12C13.6 3.84 13.7333 3.84 9.86667 6.36C9.46667 6.48 8.66667 7.2 8 7.2C7.33333 7.2 6.53333 6.48 6.13333 6.24C2.26667 3.72 2.4 3.72 1.33333 3V1.8C1.33333 1.4685 1.63167 1.2 2 1.2H14C14.3683 1.2 14.6667 1.4685 14.6667 1.8V3.12Z" fill="#1D2F39"/>
</svg>
