<?xml version="1.0" encoding="utf-8"?><svg viewBox="0 0 16 16" xmlns="http://www.w3.org/2000/svg" xmlns:xlink="http://www.w3.org/1999/xlink"><style>:root>svg{display:none}:root>svg:target{display:block}</style><svg fill="none" viewBox="0 0 16 16" id="inst" xmlns="http://www.w3.org/2000/svg"><path d="M8.002 3.898A4.095 4.095 0 003.9 8a4.095 4.095 0 004.102 4.102A4.095 4.095 0 0012.103 8a4.095 4.095 0 00-4.101-4.102zm0 6.769A2.672 2.672 0 015.335 8a2.67 2.67 0 012.667-2.667A2.67 2.67 0 0110.668 8c0 1.47-1.2 2.667-2.666 2.667zm5.225-6.937a.954.954 0 01-.956.957.957.957 0 11.957-.957zm2.717.971c-.06-1.282-.354-2.417-1.292-3.352C13.717.413 12.582.12 11.3.056c-1.32-.075-5.28-.075-6.6 0-1.278.06-2.413.354-3.352 1.29C.41 2.28.12 3.415.056 4.697c-.075 1.32-.075 5.28 0 6.6.06 1.283.354 2.418 1.292 3.353.94.936 2.07 1.229 3.352 1.293 1.32.075 5.28.075 6.6 0 1.281-.06 2.416-.354 3.352-1.293.935-.935 1.228-2.07 1.292-3.352.075-1.321.075-5.277 0-6.598zm-1.706 8.015a2.7 2.7 0 01-1.521 1.521c-1.053.418-3.552.322-4.715.322-1.164 0-3.666.092-4.715-.322a2.7 2.7 0 01-1.521-1.52C1.348 11.662 1.445 9.163 1.445 8c0-1.164-.093-3.667.321-4.716a2.7 2.7 0 011.52-1.521c1.054-.418 3.552-.322 4.716-.322 1.163 0 3.666-.092 4.715.322a2.7 2.7 0 011.52 1.52c.418 1.054.322 3.553.322 4.717 0 1.164.096 3.667-.321 4.716z" fill="#1D2F39"/></svg><svg fill="none" viewBox="0 0 16 16" id="whatsapp" xmlns="http://www.w3.org/2000/svg"><path d="M13.604 2.325A7.87 7.87 0 007.996 0a7.937 7.937 0 00-6.871 11.893L0 16l4.204-1.104a7.904 7.904 0 003.789.965h.003c4.368 0 8.004-3.557 8.004-7.929 0-2.118-.9-4.107-2.396-5.607zm-5.608 12.2a6.578 6.578 0 01-3.357-.918l-.239-.143-2.493.654.664-2.432-.157-.25a6.568 6.568 0 01-1.007-3.507c0-3.633 2.957-6.59 6.593-6.59 1.76 0 3.414.686 4.657 1.932 1.243 1.247 2.007 2.9 2.004 4.661 0 3.636-3.032 6.593-6.665 6.593zm3.615-4.936c-.197-.1-1.172-.578-1.354-.643-.182-.067-.314-.1-.446.1s-.511.643-.629.779c-.114.132-.232.15-.428.05-1.165-.582-1.929-1.04-2.697-2.357-.203-.35.204-.325.582-1.082.065-.132.032-.247-.018-.347-.05-.1-.446-1.075-.61-1.471-.161-.386-.325-.332-.447-.34-.114-.007-.246-.007-.378-.007a.734.734 0 00-.529.247c-.182.2-.693.678-.693 1.653s.711 1.918.807 2.05c.1.133 1.397 2.133 3.386 2.993 1.257.543 1.75.59 2.379.497.382-.057 1.171-.479 1.335-.943.165-.464.165-.86.115-.943-.047-.09-.179-.14-.375-.236z" fill="#1D2F39"/></svg></svg>